<svg width="564" height="87" viewBox="0 0 564 87" fill="none" xmlns="http://www.w3.org/2000/svg">
<path d="M144.256 42.927L164 62.492L152.357 73.972L132.753 54.407V51.187L141.029 42.927H144.256ZM147.447 34.072L144.045 30.712L127.247 47.512V54.407L107.503 74.112L96 62.492L115.604 42.927H122.513L125.248 40.197L111.781 26.722H107.222L97.3677 16.782L106.556 7.612L116.375 17.412V21.997L130.018 35.437L139.346 26.127L135.979 22.592L140.538 18.007H131.21L128.93 15.732L140.538 4.112L142.853 6.422V15.732L147.447 11.112L158.95 22.592C162.773 26.442 162.773 32.707 158.95 36.522L152.041 29.487L147.447 34.072Z" fill="black"/>
<path d="M24.4688 74.592L5.26875 73.92C5.26875 71.36 5.26875 68.032 5.26875 63.936C5.33275 59.84 5.36475 55.36 5.36475 50.496C5.42875 45.632 5.49275 40.672 5.55675 35.616C5.62075 30.56 5.68475 25.792 5.74875 21.312C5.81275 16.768 5.87675 12.8 5.94075 9.408C6.00475 6.016 6.06875 3.58399 6.13275 2.11199C10.4848 2.11199 15.0928 2.07999 19.9568 2.016C24.8208 1.952 29.5568 1.888 34.1648 1.824C38.8368 1.696 43.0928 1.59999 46.9328 1.536C50.7728 1.408 53.8448 1.28 56.1488 1.15199L55.7648 10.56L23.3168 9.21599C23.5728 16.064 23.7648 22.848 23.8928 29.568L54.7087 28.608L54.0368 38.976L24.0848 37.248C24.3408 50.176 24.4688 62.624 24.4688 74.592ZM65.9585 14.112V1.15199H82.2785V14.112H65.9585ZM66.3425 74.304C66.2785 72.192 66.2145 69.344 66.1505 65.76C66.0865 62.112 66.0225 57.952 65.9585 53.28C65.9585 48.544 65.9265 43.488 65.8625 38.112C65.8625 32.736 65.8625 27.232 65.8625 21.6C68.7425 21.6 71.7505 21.632 74.8865 21.696C78.0865 21.76 80.5825 21.856 82.3745 21.984C82.3745 26.656 82.3425 31.552 82.2785 36.672C82.2785 41.792 82.2465 46.784 82.1825 51.648C82.1825 56.448 82.1505 60.8 82.0865 64.704C82.0225 68.608 81.9585 71.68 81.8945 73.92C78.9505 74.048 76.1345 74.144 73.4465 74.208C70.7585 74.272 68.3905 74.304 66.3425 74.304ZM177.294 1.24799C180.878 0.863995 184.174 0.575996 187.182 0.383999C190.254 0.127998 193.102 -1.90735e-06 195.726 -1.90735e-06C197.198 4.8 198.894 9.824 200.814 15.072C202.734 20.32 204.75 25.6 206.862 30.912C209.038 36.224 211.246 41.344 213.486 46.272C216.814 39.104 219.982 31.744 222.99 24.192C226.062 16.64 229.07 8.608 232.014 0.0959969C235.47 0.0959969 238.894 0.191998 242.286 0.383999C245.678 0.575996 248.558 0.831995 250.926 1.15199C250.926 4.672 250.926 8.864 250.926 13.728C250.99 18.528 251.022 23.712 251.022 29.28C251.086 34.784 251.15 40.288 251.214 45.792C251.278 51.296 251.342 56.48 251.406 61.344C251.47 66.208 251.566 70.4 251.694 73.92C250.222 73.984 248.43 74.048 246.318 74.112C244.206 74.176 241.998 74.208 239.694 74.208C237.39 74.272 235.246 74.304 233.262 74.304C233.518 67.84 233.71 61.376 233.838 54.912C233.966 48.384 234.062 42.048 234.126 35.904C234.254 29.76 234.318 24.064 234.318 18.816C231.63 26.368 228.846 33.568 225.966 40.416C223.15 47.264 220.142 54.016 216.942 60.672L202.158 61.536C198.51 53.6 195.118 46.016 191.982 38.784C188.846 31.488 186.062 24.704 183.63 18.432L185.742 74.304L174.894 73.92C175.086 70.528 175.278 66.656 175.47 62.304C175.662 57.952 175.822 53.376 175.95 48.576C176.142 43.776 176.302 39.008 176.43 34.272C176.622 29.472 176.782 24.928 176.91 20.64C177.038 16.288 177.134 12.448 177.198 9.12C177.262 5.728 177.294 3.104 177.294 1.24799ZM266.211 86.784L265.251 77.76C268.643 77.568 271.683 77.12 274.371 76.416C277.123 75.776 279.619 74.752 281.859 73.344C279.171 67.968 276.451 62.24 273.699 56.16C270.947 50.08 268.323 44.096 265.827 38.208C263.395 32.256 261.283 26.816 259.491 21.888C261.795 21.504 264.675 21.12 268.131 20.736C271.587 20.352 274.979 20.032 278.307 19.776C279.907 24.704 282.019 30.624 284.643 37.536C287.267 44.448 290.115 51.712 293.187 59.328C295.299 55.04 297.315 49.696 299.235 43.296C301.155 36.896 303.235 29.184 305.475 20.16L317.091 21.504C313.955 33.024 310.659 42.88 307.203 51.072C303.811 59.2 300.099 65.856 296.067 71.04C292.099 76.224 287.651 80.064 282.723 82.56C277.795 85.056 272.291 86.464 266.211 86.784ZM348.437 74.304C346.837 74.304 344.853 74.272 342.485 74.208C340.181 74.208 337.813 74.176 335.381 74.112C333.013 74.048 330.933 73.984 329.141 73.92C329.141 71.04 329.141 67.52 329.141 63.36C329.205 59.136 329.237 54.624 329.237 49.824C329.301 44.96 329.333 40.128 329.333 35.328C329.397 30.464 329.461 25.92 329.525 21.696C329.589 17.408 329.653 13.76 329.717 10.752C324.917 10.816 320.245 10.88 315.701 10.944C311.157 10.944 306.997 10.944 303.221 10.944L303.605 1.344C307.701 1.344 312.117 1.376 316.853 1.44C321.589 1.44 326.421 1.472 331.349 1.536C336.277 1.536 341.045 1.568 345.653 1.63199C350.325 1.63199 354.613 1.664 358.517 1.728C362.421 1.728 365.717 1.76 368.405 1.824C371.157 1.824 373.013 1.856 373.973 1.92L374.261 9.984C370.741 10.112 366.709 10.24 362.165 10.368C357.621 10.432 352.853 10.496 347.861 10.56C347.925 13.44 347.989 16.896 348.053 20.928C348.117 24.96 348.149 29.344 348.149 34.08C348.213 38.752 348.245 43.488 348.245 48.288C348.309 53.088 348.341 57.728 348.341 62.208C348.405 66.688 348.437 70.72 348.437 74.304ZM388.39 74.592C383.334 74.592 378.758 73.408 374.662 71.04C370.566 68.672 367.302 65.472 364.87 61.44C362.502 57.408 361.318 52.928 361.318 48C361.318 44.096 362.054 40.448 363.526 37.056C364.998 33.664 367.046 30.688 369.67 28.128C372.358 25.504 375.43 23.488 378.886 22.08C382.342 20.608 386.022 19.872 389.926 19.872C394.982 19.872 399.558 21.056 403.654 23.424C407.75 25.792 410.982 28.992 413.35 33.024C415.782 36.992 416.998 41.472 416.998 46.464C416.998 50.368 416.262 54.016 414.79 57.408C413.318 60.8 411.238 63.808 408.55 66.432C405.926 68.992 402.886 71.008 399.43 72.48C396.038 73.888 392.358 74.592 388.39 74.592ZM391.174 66.816C394.566 66.816 397.222 65.376 399.142 62.496C401.062 59.552 402.022 55.488 402.022 50.304C402.022 45.952 401.382 42.08 400.102 38.688C398.822 35.296 397.062 32.608 394.822 30.624C392.582 28.64 390.022 27.648 387.142 27.648C383.75 27.648 381.094 29.12 379.174 32.064C377.254 34.944 376.294 38.976 376.294 44.16C376.294 48.448 376.934 52.32 378.214 55.776C379.494 59.168 381.254 61.856 383.494 63.84C385.798 65.824 388.358 66.816 391.174 66.816ZM448.602 74.4C443.738 74.4 439.002 74.208 434.394 73.824C433.242 70.304 431.994 66.368 430.65 62.016C429.37 57.664 428.058 53.152 426.714 48.48C425.434 43.744 424.186 39.072 422.97 34.464C421.818 29.792 420.794 25.44 419.898 21.408C427.514 20.64 433.146 20.256 436.794 20.256C437.946 27.168 439.258 34.304 440.73 41.664C442.266 49.024 443.802 55.872 445.338 62.208C447.194 54.016 448.826 46.496 450.234 39.648C451.642 32.8 452.858 26.592 453.882 21.024C455.482 20.96 457.338 20.896 459.45 20.832C461.626 20.768 463.738 20.736 465.786 20.736C467.898 20.672 469.562 20.64 470.778 20.64C471.994 27.68 473.338 34.816 474.81 42.048C476.282 49.216 477.786 55.936 479.322 62.208C481.05 54.592 482.65 47.264 484.122 40.224C485.594 33.12 486.842 26.56 487.866 20.544L497.082 21.12C495.61 27.52 494.042 33.92 492.378 40.32C490.714 46.656 489.05 52.704 487.386 58.464C485.722 64.16 484.122 69.28 482.586 73.824C479.45 74.208 474.714 74.4 468.378 74.4C466.842 69.6 465.21 64.224 463.482 58.272C461.754 52.32 460.122 46.368 458.586 40.416C456.922 46.88 455.226 53.024 453.498 58.848C451.77 64.672 450.138 69.856 448.602 74.4ZM506.329 74.304C506.265 72.256 506.201 69.44 506.137 65.856C506.073 62.208 506.009 58.016 505.945 53.28C505.945 48.48 505.913 43.328 505.849 37.824C505.849 32.256 505.849 26.528 505.849 20.64C507.257 20.64 508.985 20.672 511.033 20.736C513.081 20.736 515.129 20.768 517.177 20.832C519.289 20.896 521.017 20.96 522.361 21.024C522.361 22.624 522.361 24.256 522.361 25.92C527.801 21.888 533.337 19.872 538.969 19.872C544.153 19.872 548.345 21.696 551.545 25.344C554.745 28.992 557.049 34.816 558.457 42.816C559.929 50.816 560.665 61.312 560.665 74.304C559.193 74.304 557.433 74.272 555.385 74.208C553.337 74.208 551.321 74.176 549.337 74.112C547.353 74.048 545.625 73.984 544.153 73.92C544.153 62.592 543.833 53.536 543.193 46.752C542.553 39.968 541.497 35.072 540.025 32.064C538.553 29.056 536.569 27.552 534.073 27.552C532.025 27.552 529.945 28.416 527.833 30.144C525.721 31.872 523.897 34.144 522.361 36.96C522.297 42.4 522.233 47.552 522.169 52.416C522.169 57.28 522.137 61.6 522.073 65.376C522.009 69.088 521.945 71.936 521.881 73.92C519.897 73.984 517.465 74.048 514.585 74.112C511.769 74.24 509.017 74.304 506.329 74.304Z" fill="black"/>
</svg>
